<svg width="220" height="220" viewBox="0 0 220 220" fill="none" xmlns="http://www.w3.org/2000/svg">
<rect width="220" height="220" fill="#1E1E1E"/>
<rect width="220" height="220" rx="110" fill="#050505"/>
<rect width="220" height="220" rx="110" fill="#6A75EF"/>
<g opacity="0.67" filter="url(#filter0_d_2_120)">
<ellipse cx="110" cy="110" rx="84" ry="76" fill="white"/>
</g>
<g opacity="0.37" filter="url(#filter1_d_2_120)">
<ellipse cx="109.5" cy="110" rx="77.5" ry="65" fill="white"/>
</g>
<g opacity="0.25" filter="url(#filter2_d_2_120)">
<ellipse cx="111" cy="110" rx="67" ry="55" fill="white"/>
</g>
<g opacity="0.85" filter="url(#filter3_d_2_120)">
<ellipse cx="112.5" cy="110" rx="56.5" ry="42" fill="white"/>
</g>
<g filter="url(#filter4_d_2_120)">
<ellipse cx="111.5" cy="110" rx="48.5" ry="30" fill="white"/>
</g>
<g filter="url(#filter5_d_2_120)">
<circle cx="91" cy="110" r="20" fill="#403C3C"/>
</g>
<g filter="url(#filter6_d_2_120)">
<circle cx="91" cy="110" r="14" fill="white"/>
</g>
<g filter="url(#filter7_d_2_120)">
<path d="M51.92 128.96L33.52 94.88H42.32L54.8 121.2L50.24 121.04L61.68 94.88H70L52.32 128.96H51.92Z" fill="#403C3C"/>
</g>
<g filter="url(#filter8_d_2_120)">
<path d="M164.4 73.4H170V128H164.4V73.4ZM137.45 111.9C137.45 108.4 138.173 105.413 139.62 102.94C141.067 100.42 143.003 98.4833 145.43 97.13C147.857 95.7767 150.517 95.1 153.41 95.1C156.117 95.1 158.473 95.7767 160.48 97.13C162.487 98.4833 164.05 100.42 165.17 102.94C166.337 105.413 166.92 108.4 166.92 111.9C166.92 115.353 166.337 118.34 165.17 120.86C164.05 123.38 162.487 125.317 160.48 126.67C158.473 128.023 156.117 128.7 153.41 128.7C150.517 128.7 147.857 128.023 145.43 126.67C143.003 125.317 141.067 123.38 139.62 120.86C138.173 118.34 137.45 115.353 137.45 111.9ZM143.12 111.9C143.12 114.373 143.61 116.473 144.59 118.2C145.617 119.927 146.97 121.233 148.65 122.12C150.33 123.007 152.15 123.45 154.11 123.45C155.743 123.45 157.353 123.007 158.94 122.12C160.527 121.233 161.833 119.927 162.86 118.2C163.887 116.473 164.4 114.373 164.4 111.9C164.4 109.427 163.887 107.327 162.86 105.6C161.833 103.873 160.527 102.567 158.94 101.68C157.353 100.793 155.743 100.35 154.11 100.35C152.15 100.35 150.33 100.793 148.65 101.68C146.97 102.567 145.617 103.873 144.59 105.6C143.61 107.327 143.12 109.427 143.12 111.9Z" fill="#403C3C"/>
</g>
<line opacity="0.31" x1="67.0837" y1="73.5071" x2="120.084" y2="82.5071" stroke="#403C3C"/>
<line opacity="0.19" x1="123.576" y1="82.7356" x2="161.576" y2="21.7356" stroke="#403C3C"/>
<g filter="url(#filter9_d_2_120)">
<path d="M120.25 82.5C120.25 81.4267 120.623 80.5167 121.37 79.77C122.163 79.0233 123.073 78.65 124.1 78.65C125.173 78.65 126.083 79.0233 126.83 79.77C127.577 80.5167 127.95 81.4267 127.95 82.5C127.95 83.5267 127.577 84.4367 126.83 85.23C126.083 85.9767 125.173 86.35 124.1 86.35C123.073 86.35 122.163 85.9767 121.37 85.23C120.623 84.4367 120.25 83.5267 120.25 82.5ZM121.3 95.8H126.9V128H121.3V95.8Z" fill="#6A75EF"/>
</g>
<line opacity="0.23" x1="59.9502" y1="183.502" x2="169.95" y2="172.502" stroke="#403C3C"/>
<line opacity="0.25" x1="59.6388" y1="184.346" x2="14.6388" y2="137.346" stroke="#403C3C"/>
<line opacity="0.31" x1="14.6114" y1="136.685" x2="65.6114" y2="73.6854" stroke="#403C3C"/>
<line opacity="0.21" x1="55.4685" y1="27.1746" x2="14.4685" y2="137.175" stroke="#403C3C"/>
<line opacity="0.27" x1="102.382" y1="32.6774" x2="140.382" y2="77.6774" stroke="#403C3C"/>
<line opacity="0.27" x1="90.7266" y1="109.581" x2="139.727" y2="77.5814" stroke="#403C3C"/>
<line opacity="0.24" x1="66.4107" y1="73.7148" x2="91.4107" y2="109.715" stroke="#403C3C"/>
<line opacity="0.3" x1="102.48" y1="33.1399" x2="58.48" y2="184.14" stroke="#403C3C"/>
<line opacity="0.23" x1="65.936" y1="73.5041" x2="189.936" y2="57.5041" stroke="#403C3C"/>
<line opacity="0.36" x1="149.152" y1="18.4763" x2="102.152" y2="33.4763" stroke="#403C3C"/>
<line opacity="0.26" x1="169.685" y1="173.389" x2="90.6853" y2="109.389" stroke="#403C3C"/>
<line opacity="0.25" x1="169.551" y1="173.22" x2="101.551" y2="34.2197" stroke="#403C3C"/>
<line opacity="0.2" x1="169.888" y1="173.487" x2="13.8876" y2="137.487" stroke="#403C3C"/>
<line opacity="0.18" x1="169.485" y1="173.121" x2="164.485" y2="193.121" stroke="#403C3C"/>
<line opacity="0.24" x1="168.962" y1="172.501" x2="194.962" y2="170.501" stroke="#403C3C"/>
<line opacity="0.18" x1="169.447" y1="171.776" x2="178.447" y2="189.776" stroke="#403C3C"/>
<line opacity="0.24" x1="169.197" y1="172.54" x2="183.197" y2="178.54" stroke="#403C3C"/>
<line opacity="0.18" x1="149.339" y1="18.3674" x2="136.339" y2="30.3674" stroke="#403C3C"/>
<line opacity="0.21" x1="149.158" y1="17.5257" x2="161.158" y2="21.5257" stroke="#403C3C"/>
<line opacity="0.21" x1="137.14" y1="29.5199" x2="192.14" y2="45.5199" stroke="#403C3C"/>
<line opacity="0.25" x1="192.485" y1="45.1213" x2="189.485" y2="57.1213" stroke="#403C3C"/>
<line opacity="0.25" x1="40.8318" y1="32.5291" x2="54.8318" y2="27.5291" stroke="#403C3C"/>
<line opacity="0.23" x1="77.7201" y1="58.4143" x2="40.7201" y2="33.4143" stroke="#403C3C"/>
<line opacity="0.21" x1="77.0045" y1="56.5" x2="190.004" y2="57.518" stroke="#403C3C"/>
<line opacity="0.24" x1="64.9463" y1="37.5029" x2="101.946" y2="33.5029" stroke="#403C3C"/>
<line opacity="0.19" x1="64.63" y1="38.3363" x2="54.63" y2="27.3363" stroke="#403C3C"/>
<circle opacity="0.79" cx="149" cy="18" r="3" fill="#403C3C"/>
<circle opacity="0.84" cx="139.5" cy="77.5" r="2.5" fill="#403C3C"/>
<circle opacity="0.82" cx="66" cy="74" r="4" fill="#403C3C"/>
<circle opacity="0.93" cx="90.5" cy="109.5" r="4.5" fill="#403C3C"/>
<circle opacity="0.75" cx="14.5" cy="136.5" r="3.5" fill="#403C3C"/>
<circle opacity="0.73" cx="59.5" cy="183.5" r="2.5" fill="#403C3C"/>
<circle opacity="0.71" cx="169.5" cy="172.5" r="2.5" fill="#403C3C"/>
<circle opacity="0.75" cx="189.5" cy="57.5" r="2.5" fill="#403C3C"/>
<circle opacity="0.69" cx="194.5" cy="170.5" r="2.5" fill="#403C3C"/>
<circle opacity="0.62" cx="182.5" cy="178.5" r="2.5" fill="#403C3C"/>
<circle opacity="0.77" cx="178.5" cy="189.5" r="2.5" fill="#403C3C"/>
<circle opacity="0.67" cx="164.5" cy="192.5" r="2.5" fill="#403C3C"/>
<circle opacity="0.82" cx="77.5" cy="57.5" r="2.5" fill="#403C3C"/>
<circle opacity="0.73" cx="40.5" cy="32.5" r="2.5" fill="#403C3C"/>
<circle opacity="0.75" cx="64.5" cy="37.5" r="2.5" fill="#403C3C"/>
<circle opacity="0.79" cx="161.5" cy="22.5" r="2.5" fill="#403C3C"/>
<circle opacity="0.84" cx="136.5" cy="30.5" r="2.5" fill="#403C3C"/>
<circle opacity="0.7" cx="191.5" cy="45.5" r="2.5" fill="#403C3C"/>
<circle opacity="0.78" cx="55" cy="27" r="3" fill="#403C3C"/>
<circle opacity="0.84" cx="101.5" cy="33.5" r="3.5" fill="#403C3C"/>
<defs>
<filter id="filter0_d_2_120" x="22" y="34" width="176" height="160" filterUnits="userSpaceOnUse" color-interpolation-filters="sRGB">
<feFlood flood-opacity="0" result="BackgroundImageFix"/>
<feColorMatrix in="SourceAlpha" type="matrix" values="0 0 0 0 0 0 0 0 0 0 0 0 0 0 0 0 0 0 127 0" result="hardAlpha"/>
<feOffset dy="4"/>
<feGaussianBlur stdDeviation="2"/>
<feComposite in2="hardAlpha" operator="out"/>
<feColorMatrix type="matrix" values="0 0 0 0 0 0 0 0 0 0 0 0 0 0 0 0 0 0 0.25 0"/>
<feBlend mode="normal" in2="BackgroundImageFix" result="effect1_dropShadow_2_120"/>
<feBlend mode="normal" in="SourceGraphic" in2="effect1_dropShadow_2_120" result="shape"/>
</filter>
<filter id="filter1_d_2_120" x="28" y="45" width="163" height="138" filterUnits="userSpaceOnUse" color-interpolation-filters="sRGB">
<feFlood flood-opacity="0" result="BackgroundImageFix"/>
<feColorMatrix in="SourceAlpha" type="matrix" values="0 0 0 0 0 0 0 0 0 0 0 0 0 0 0 0 0 0 127 0" result="hardAlpha"/>
<feOffset dy="4"/>
<feGaussianBlur stdDeviation="2"/>
<feComposite in2="hardAlpha" operator="out"/>
<feColorMatrix type="matrix" values="0 0 0 0 0 0 0 0 0 0 0 0 0 0 0 0 0 0 0.25 0"/>
<feBlend mode="normal" in2="BackgroundImageFix" result="effect1_dropShadow_2_120"/>
<feBlend mode="normal" in="SourceGraphic" in2="effect1_dropShadow_2_120" result="shape"/>
</filter>
<filter id="filter2_d_2_120" x="40" y="55" width="142" height="118" filterUnits="userSpaceOnUse" color-interpolation-filters="sRGB">
<feFlood flood-opacity="0" result="BackgroundImageFix"/>
<feColorMatrix in="SourceAlpha" type="matrix" values="0 0 0 0 0 0 0 0 0 0 0 0 0 0 0 0 0 0 127 0" result="hardAlpha"/>
<feOffset dy="4"/>
<feGaussianBlur stdDeviation="2"/>
<feComposite in2="hardAlpha" operator="out"/>
<feColorMatrix type="matrix" values="0 0 0 0 0 0 0 0 0 0 0 0 0 0 0 0 0 0 0.25 0"/>
<feBlend mode="normal" in2="BackgroundImageFix" result="effect1_dropShadow_2_120"/>
<feBlend mode="normal" in="SourceGraphic" in2="effect1_dropShadow_2_120" result="shape"/>
</filter>
<filter id="filter3_d_2_120" x="52" y="68" width="121" height="92" filterUnits="userSpaceOnUse" color-interpolation-filters="sRGB">
<feFlood flood-opacity="0" result="BackgroundImageFix"/>
<feColorMatrix in="SourceAlpha" type="matrix" values="0 0 0 0 0 0 0 0 0 0 0 0 0 0 0 0 0 0 127 0" result="hardAlpha"/>
<feOffset dy="4"/>
<feGaussianBlur stdDeviation="2"/>
<feComposite in2="hardAlpha" operator="out"/>
<feColorMatrix type="matrix" values="0 0 0 0 0 0 0 0 0 0 0 0 0 0 0 0 0 0 0.25 0"/>
<feBlend mode="normal" in2="BackgroundImageFix" result="effect1_dropShadow_2_120"/>
<feBlend mode="normal" in="SourceGraphic" in2="effect1_dropShadow_2_120" result="shape"/>
</filter>
<filter id="filter4_d_2_120" x="59" y="80" width="105" height="68" filterUnits="userSpaceOnUse" color-interpolation-filters="sRGB">
<feFlood flood-opacity="0" result="BackgroundImageFix"/>
<feColorMatrix in="SourceAlpha" type="matrix" values="0 0 0 0 0 0 0 0 0 0 0 0 0 0 0 0 0 0 127 0" result="hardAlpha"/>
<feOffset dy="4"/>
<feGaussianBlur stdDeviation="2"/>
<feComposite in2="hardAlpha" operator="out"/>
<feColorMatrix type="matrix" values="0 0 0 0 0 0 0 0 0 0 0 0 0 0 0 0 0 0 0.25 0"/>
<feBlend mode="normal" in2="BackgroundImageFix" result="effect1_dropShadow_2_120"/>
<feBlend mode="normal" in="SourceGraphic" in2="effect1_dropShadow_2_120" result="shape"/>
</filter>
<filter id="filter5_d_2_120" x="67" y="90" width="48" height="48" filterUnits="userSpaceOnUse" color-interpolation-filters="sRGB">
<feFlood flood-opacity="0" result="BackgroundImageFix"/>
<feColorMatrix in="SourceAlpha" type="matrix" values="0 0 0 0 0 0 0 0 0 0 0 0 0 0 0 0 0 0 127 0" result="hardAlpha"/>
<feOffset dy="4"/>
<feGaussianBlur stdDeviation="2"/>
<feComposite in2="hardAlpha" operator="out"/>
<feColorMatrix type="matrix" values="0 0 0 0 0 0 0 0 0 0 0 0 0 0 0 0 0 0 0.25 0"/>
<feBlend mode="normal" in2="BackgroundImageFix" result="effect1_dropShadow_2_120"/>
<feBlend mode="normal" in="SourceGraphic" in2="effect1_dropShadow_2_120" result="shape"/>
</filter>
<filter id="filter6_d_2_120" x="73" y="96" width="36" height="36" filterUnits="userSpaceOnUse" color-interpolation-filters="sRGB">
<feFlood flood-opacity="0" result="BackgroundImageFix"/>
<feColorMatrix in="SourceAlpha" type="matrix" values="0 0 0 0 0 0 0 0 0 0 0 0 0 0 0 0 0 0 127 0" result="hardAlpha"/>
<feOffset dy="4"/>
<feGaussianBlur stdDeviation="2"/>
<feComposite in2="hardAlpha" operator="out"/>
<feColorMatrix type="matrix" values="0 0 0 0 0 0 0 0 0 0 0 0 0 0 0 0 0 0 0.25 0"/>
<feBlend mode="normal" in2="BackgroundImageFix" result="effect1_dropShadow_2_120"/>
<feBlend mode="normal" in="SourceGraphic" in2="effect1_dropShadow_2_120" result="shape"/>
</filter>
<filter id="filter7_d_2_120" x="29.52" y="94.88" width="44.48" height="42.08" filterUnits="userSpaceOnUse" color-interpolation-filters="sRGB">
<feFlood flood-opacity="0" result="BackgroundImageFix"/>
<feColorMatrix in="SourceAlpha" type="matrix" values="0 0 0 0 0 0 0 0 0 0 0 0 0 0 0 0 0 0 127 0" result="hardAlpha"/>
<feOffset dy="4"/>
<feGaussianBlur stdDeviation="2"/>
<feComposite in2="hardAlpha" operator="out"/>
<feColorMatrix type="matrix" values="0 0 0 0 0 0 0 0 0 0 0 0 0 0 0 0 0 0 0.25 0"/>
<feBlend mode="normal" in2="BackgroundImageFix" result="effect1_dropShadow_2_120"/>
<feBlend mode="normal" in="SourceGraphic" in2="effect1_dropShadow_2_120" result="shape"/>
</filter>
<filter id="filter8_d_2_120" x="133.45" y="73.4" width="40.55" height="63.3" filterUnits="userSpaceOnUse" color-interpolation-filters="sRGB">
<feFlood flood-opacity="0" result="BackgroundImageFix"/>
<feColorMatrix in="SourceAlpha" type="matrix" values="0 0 0 0 0 0 0 0 0 0 0 0 0 0 0 0 0 0 127 0" result="hardAlpha"/>
<feOffset dy="4"/>
<feGaussianBlur stdDeviation="2"/>
<feComposite in2="hardAlpha" operator="out"/>
<feColorMatrix type="matrix" values="0 0 0 0 0 0 0 0 0 0 0 0 0 0 0 0 0 0 0.25 0"/>
<feBlend mode="normal" in2="BackgroundImageFix" result="effect1_dropShadow_2_120"/>
<feBlend mode="normal" in="SourceGraphic" in2="effect1_dropShadow_2_120" result="shape"/>
</filter>
<filter id="filter9_d_2_120" x="116.25" y="78.65" width="15.7" height="57.35" filterUnits="userSpaceOnUse" color-interpolation-filters="sRGB">
<feFlood flood-opacity="0" result="BackgroundImageFix"/>
<feColorMatrix in="SourceAlpha" type="matrix" values="0 0 0 0 0 0 0 0 0 0 0 0 0 0 0 0 0 0 127 0" result="hardAlpha"/>
<feOffset dy="4"/>
<feGaussianBlur stdDeviation="2"/>
<feComposite in2="hardAlpha" operator="out"/>
<feColorMatrix type="matrix" values="0 0 0 0 0 0 0 0 0 0 0 0 0 0 0 0 0 0 0.25 0"/>
<feBlend mode="normal" in2="BackgroundImageFix" result="effect1_dropShadow_2_120"/>
<feBlend mode="normal" in="SourceGraphic" in2="effect1_dropShadow_2_120" result="shape"/>
</filter>
</defs>
</svg>
